<svg xmlns="http://www.w3.org/2000/svg" xmlns:xlink="http://www.w3.org/1999/xlink" aria-hidden="true" role="img" class="iconify iconify--logos" width="35.93" height="32" preserveAspectRatio="xMidYMid meet" viewBox="0 0 256 228"><path fill="#00D8FF" d="M210.483 73.824a171.49 171.49 0 0 0-8.24-2.597c.465-1.9.893-3.777 1.273-5.621c6.238-30.281 2.16-54.676-11.769-62.708c-13.355-7.7-35.196.329-57.254 19.526a171.23 171.23 0 0 0-6.375 5.848a155.866 155.866 0 0 0-4.241-3.917C100.759 3.829 77.587-4.822 63.673 3.233C50.33 10.957 46.379 33.89 51.986 62.588a170.974 170.974 0 0 0 1.892 8.48c-3.28.932-6.445 1.924-9.474 2.98C17.309 83.498 0 98.307 0 113.668c0 15.865 18.582 31.778 46.812 41.427a145.52 145.52 0 0 0 6.921 2.165a167.467 167.467 0 0 0-2.01 9.138c-5.354 28.2-1.173 50.591 12.134 58.266c13.744 7.926 36.812-.22 59.273-19.855a145.567 145.567 0 0 0 5.342-4.923a168.064 168.064 0 0 0 6.92 6.314c21.758 18.722 43.246 26.282 56.54 18.586c13.731-7.949 18.194-32.003 12.4-61.268a145.016 145.016 0 0 0-1.535-6.842c1.62-.48 3.21-.974 4.76-1.488c29.348-9.723 48.443-25.443 48.443-41.52c0-15.417-17.868-30.326-45.517-39.844Zm-6.365 70.984c-1.4.463-2.836.91-4.3 1.345c-3.24-10.257-7.612-21.163-12.963-32.432c5.106-11 9.31-21.767 12.459-31.957a145.29 145.29 0 0 1 7.535 2.358c22.533 7.813 36.331 18.845 36.331 27.546c0 9.408-14.878 21.262-39.062 29.14Zm-10.404 20.934c1.543 8.077 2.158 15.553 1.795 22.019c-.335 5.94-1.503 10.733-3.325 13.912c-3.567 6.219-14.457 8.165-28.846.744c-3.86-1.991-7.837-4.441-11.874-7.315a167.4 167.4 0 0 0 12.292-13.253c5.907-1.308 11.457-2.882 16.485-4.688a132.232 132.232 0 0 0 3.473 1.581Zm-82.584-89.77c-2.469 4.253-4.89 8.622-7.232 13.08c-2.36-4.503-4.613-8.903-6.746-13.169c4.425-1.014 9.024-1.927 13.745-2.72c0 .936.072 1.872.233 2.809Zm-23.138 55.089c-9.38-1.678-18.023-3.858-25.629-6.468c-6.927-2.376-12.744-5.068-17.256-7.892c-4.092-2.562-6.698-5.014-7.684-6.933c-.982-1.912-.758-4.229.58-6.988c3.067-6.332 14.13-15.408 31.48-22.406c2.732-1.1 5.624-2.143 8.637-3.115a167.06 167.06 0 0 0 11.03 30.73a167.37 167.37 0 0 0-11.158 23.072Zm-22.594 35.956c-6.09-2.32-10.174-5.217-12.018-8.064c-1.728-2.668-1.754-5.36-.098-8.097c3.416-5.652 14.985-12.613 31.766-17.72c2.816-.856 5.75-1.651 8.782-2.383a167.33 167.33 0 0 0 12.74 26.22a167.25 167.25 0 0 0-13.402 24.074c-6.49-1.38-12.602-3.163-18.157-5.384c-3.623-1.396-6.997-2.93-9.613-4.646Zm81.265 56.786c-13.93 15.023-27.97 22.488-36.267 17.7c-8.655-4.999-12.043-21.394-7.64-43.594a153.88 153.88 0 0 1 1.815-8.153a167.02 167.02 0 0 0 26.618 2.52c6.556 8.27 13.467 15.663 20.557 22.01a132.58 132.58 0 0 1-5.083 4.517Zm58.608-57.858c-7.673 2.55-16.334 4.648-25.618 6.209a167.21 167.21 0 0 0 12.66-22.876a167.19 167.19 0 0 0 11.376 24.604l1.582-7.937ZM128.326 73.086c2.356-2.042 4.742-3.985 7.14-5.814c2.422 1.87 4.838 3.86 7.229 5.96a167.21 167.21 0 0 0-14.37-.146Zm-21.098 52.774c2.762 5.163 5.696 10.283 8.777 15.322c-9.44.59-18.206.56-26.02-.168a142.41 142.41 0 0 1 8.693-15.166c2.692 0 5.517-.092 8.55.012Zm21.218 37.7c-5.404 6.07-10.853 11.534-16.258 16.284c-5.442-4.8-10.917-10.324-16.332-16.462c5.379.326 10.882.498 16.476.498c5.572 0 11.063-.168 16.414-.487l-.3.167Zm35.34-22.376c5.065-1.106 9.777-2.397 14.075-3.846a132.51 132.51 0 0 1-8.506 14.86c-9.56-.524-19.676-1.664-30.023-3.326a167.02 167.02 0 0 0 8.897-15.344c5.037.877 10.218 1.594 15.557 2.156v5.5Zm-20.478-26.194c-3.694-6.43-7.16-12.82-10.33-19.093a135.26 135.26 0 0 1 20.96 0c-3.206 6.29-6.665 12.669-10.63 19.093Zm-37.476 0c-3.953-6.4-7.407-12.767-10.346-18.985a135.86 135.86 0 0 1 20.712-.044c-3.138 6.233-6.563 12.592-10.366 19.03Zm-10.082 17.318c-3.218 5.565-6.305 11.076-9.219 16.479c-6.2-.706-12.004-1.672-17.28-2.862a141.932 141.932 0 0 1 8.753-15.072c5.738.966 11.624 1.527 17.746 1.455Zm75.862-49.786c-2.543 8.8-6.112 18.208-10.593 27.918c-4.753-9.905-10.175-19.702-16.09-29.148c5.553-.796 10.7-1.828 15.313-3.067a142.6 142.6 0 0 1 5.37 4.297l6-8Z"></path><circle cx="128" cy="113.634" r="19.44" fill="#00D8FF"></circle></svg>
